<svg preserveAspectRatio="none" overflow="visible" style="display: block;" width="24" height="24" viewBox="0 0 24 24" fill="none" xmlns="http://www.w3.org/2000/svg">
<g id="image 41 [Vectorized]" clip-path="url(#clip0_0_71)">
<path id="Vector" d="M11.0262 0H12.9514L12.9717 0.00704808C13.2025 0.084713 13.6324 0.0921145 13.8902 0.138876C14.411 0.233358 14.923 0.346406 15.4298 0.498227C18.5692 1.44439 21.1889 3.62611 22.6875 6.54237C23.208 7.56047 23.5802 8.64771 23.793 9.77112C23.842 10.04 23.9414 10.9437 24 11.1155V12.9089L23.9932 12.9303C23.921 13.1654 23.8758 13.7556 23.8296 14.0239C23.7492 14.4889 23.652 14.9059 23.5198 15.3605C22.6099 18.4459 20.5068 21.0407 17.6766 22.5697C16.6401 23.13 15.5276 23.5369 14.3742 23.7773C14.1215 23.828 13.1358 23.9362 12.9961 24H11.0439C10.9064 23.947 9.9619 23.828 9.73978 23.7888C9.07587 23.6655 8.42442 23.4827 7.79334 23.2423C4.35602 21.9468 1.69594 19.1561 0.566456 15.6607C0.427324 15.2299 0.314095 14.7912 0.227381 14.3469C0.183869 14.1146 0.0706104 13.1367 0 12.9996V11.0008C0.0766988 10.8383 0.105213 10.3536 0.137463 10.1545C0.169699 9.95562 0.206635 9.76495 0.247545 9.56602C0.4524 8.5608 0.788259 7.58681 1.24653 6.66895C2.72482 3.68484 5.37661 1.44915 8.5677 0.49662C9.07612 0.347025 9.59311 0.22825 10.1159 0.140942C10.3549 0.102322 10.8131 0.0781062 11.0262 0ZM10.1655 10.0116C9.50435 10.0484 8.81817 10.001 8.15414 10.0158C7.82527 10.0231 7.47438 10.0016 7.14837 10.0605C6.73533 10.1754 6.48553 10.5705 6.51255 10.9878C6.53248 11.2949 6.70305 11.5184 6.927 11.7002C7.6173 12.2607 8.30644 12.8217 8.9989 13.3786C8.82872 14.0692 8.58588 14.7509 8.37352 15.4303C8.28206 15.723 8.14566 16.0514 8.1176 16.3573C8.09986 16.5507 8.13858 16.7286 8.24048 16.8943C8.36756 17.1011 8.53852 17.2493 8.77847 17.3041C9.11609 17.3811 9.39998 17.2647 9.6788 17.0863C9.96715 16.9017 11.8713 15.5436 12.0325 15.5714C12.0497 15.5744 12.0659 15.5796 12.0824 15.5852C12.6618 15.9347 13.2231 16.324 13.8149 16.7068C14.4596 17.1444 15.2081 17.7357 15.819 16.8604C16.0005 16.6002 15.9272 16.3651 15.8805 16.0907C15.8117 15.6871 14.9759 13.5969 15.0441 13.3536C15.1387 13.2533 15.4783 12.989 15.5982 12.8913L16.7448 11.9575C17.1121 11.6588 17.5107 11.4174 17.4845 10.8891C17.471 10.6173 17.388 10.4356 17.1906 10.252C17.0778 10.1463 16.9373 10.0746 16.7855 10.0451C16.5889 10.0079 16.03 10.0189 15.8126 10.017C15.1486 10.011 14.4753 10.0305 13.8109 10.0205C13.7498 9.79971 13.6604 9.55338 13.5762 9.33954C13.3035 8.64684 13.0896 7.91339 12.7702 7.24244C12.5991 6.88296 12.2234 6.81302 11.8675 6.83262C11.6444 6.85237 11.4558 6.94755 11.3101 7.12008C11.013 7.4719 10.4215 9.42743 10.1655 10.0116Z" fill="#FEFEFE"/>
</g>
<defs>
<clipPath id="clip0_0_71">
<rect width="24" height="24" fill="white"/>
</clipPath>
</defs>
</svg>
